<svg xmlns="http://www.w3.org/2000/svg" xmlns:xlink="http://www.w3.org/1999/xlink" width="500" zoomAndPan="magnify" viewBox="0 0 375 374.999991" height="500" preserveAspectRatio="xMidYMid meet" version="1.0"><path fill="#e09145" d="M 167.390625 134.894531 L 208.511719 206.113281 L 247.480469 138.648438 L 206.355469 67.429688 L 128.421875 67.429688 L 55.011719 194.597656 L 26.027344 244.835938 C 24.148438 248.039062 25.261719 252.179688 28.496094 254.023438 C 31.699219 255.902344 35.839844 254.789062 37.71875 251.550781 L 46.035156 237.148438 C 47.878906 233.945312 52.019531 232.832031 55.253906 234.675781 C 58.453125 236.519531 59.566406 240.695312 57.722656 243.898438 L 41.859375 271.382812 C 40.015625 274.585938 41.09375 278.722656 44.328125 280.601562 C 47.53125 282.445312 51.667969 281.332031 53.546875 278.132812 L 79.746094 232.730469 C 81.589844 229.527344 85.730469 228.414062 88.96875 230.257812 C 92.167969 232.136719 93.28125 236.277344 91.4375 239.480469 L 86.984375 247.203125 L 57.96875 297.40625 C 56.125 300.644531 57.238281 304.785156 60.4375 306.628906 C 63.671875 308.507812 67.8125 307.394531 69.65625 304.15625 L 98.675781 253.953125 Z M 207.609375 240.070312 L 166.484375 168.851562 L 127.550781 236.3125 L 168.675781 307.53125 L 246.578125 307.53125 L 319.988281 180.367188 L 349.003906 130.160156 C 350.847656 126.925781 349.734375 122.785156 346.535156 120.941406 C 343.300781 119.0625 339.160156 120.175781 337.316406 123.410156 L 328.964844 137.816406 C 327.121094 141.050781 322.980469 142.164062 319.78125 140.285156 C 316.542969 138.441406 315.429688 134.300781 317.308594 131.066406 L 333.140625 103.613281 C 335.019531 100.378906 333.90625 96.238281 330.667969 94.394531 C 327.46875 92.515625 323.328125 93.628906 321.484375 96.863281 L 295.285156 142.234375 C 293.40625 145.433594 289.265625 146.546875 286.066406 144.703125 C 282.832031 142.859375 281.714844 138.683594 283.59375 135.484375 L 288.050781 127.761719 L 317.03125 77.554688 C 318.875 74.320312 317.761719 70.179688 314.5625 68.335938 C 311.359375 66.492188 307.183594 67.570312 305.339844 70.804688 L 276.359375 121.011719 Z M 334.324219 88.0625 C 331.296875 86.289062 330.253906 82.390625 331.992188 79.363281 C 333.765625 76.300781 337.664062 75.257812 340.722656 77.03125 C 343.75 78.773438 344.796875 82.667969 343.054688 85.730469 C 341.28125 88.757812 337.382812 89.800781 334.324219 88.0625 Z M 349.179688 116.347656 C 346.117188 114.609375 345.074219 110.710938 346.847656 107.648438 C 348.585938 104.589844 352.484375 103.542969 355.546875 105.320312 C 358.574219 107.09375 359.617188 110.992188 357.878906 114.015625 C 356.101562 117.078125 352.207031 118.121094 349.179688 116.347656 Z M 40.675781 286.902344 C 43.738281 288.675781 44.78125 292.570312 43.007812 295.632812 C 41.230469 298.660156 37.335938 299.703125 34.308594 297.964844 C 31.246094 296.191406 30.203125 292.292969 31.976562 289.230469 C 33.71875 286.203125 37.613281 285.160156 40.675781 286.902344 Z M 25.855469 258.613281 C 28.878906 260.390625 29.925781 264.285156 28.183594 267.3125 C 26.410156 270.375 22.515625 271.417969 19.488281 269.644531 C 16.425781 267.902344 15.382812 264.007812 17.15625 260.945312 C 18.894531 257.882812 22.792969 256.839844 25.855469 258.613281 Z M 25.855469 258.613281 " fill-opacity="1" fill-rule="evenodd"/></svg>